<svg xmlns="http://www.w3.org/2000/svg" viewBox="0 0 336 456.5"><defs><style>.cls-1{fill:#115173;}.cls-2{fill:gold;}.cls-3{fill:#053f5e;}</style></defs><title>Asset 1</title><g id="Layer_2" data-name="Layer 2"><g id="templates"><path class="cls-1" d="M14.9,0H306.75A29.25,29.25,0,0,1,336,29.25V426.75A29.25,29.25,0,0,1,306.75,456H14.9A14.9,14.9,0,0,1,0,441.1V14.9A14.9,14.9,0,0,1,14.9,0Z"/><polygon class="cls-2" points="294.68 0 294.68 96 259 70 222.32 96 222.32 0 294.68 0"/><path class="cls-3" d="M15.48.5H74a0,0,0,0,1,0,0v456a0,0,0,0,1,0,0H15.48a15,15,0,0,1-15-15v-426a15,15,0,0,1,15-15Z"/></g></g></svg>